<svg width="22" height="23" viewBox="0 0 22 23" fill="none" xmlns="http://www.w3.org/2000/svg">
<rect width="22" height="23" rx="8" fill="#FFAB00" fill-opacity="0.4"/>
<path d="M4 13V11.5H9.44444V13H4ZM4 10V8.5H12.5556V10H4ZM4 7V5.5H12.5556V7H4ZM11 17.5V15.1938L15.2972 11.0688C15.4139 10.9563 15.5435 10.875 15.6861 10.825C15.8287 10.775 15.9713 10.75 16.1139 10.75C16.2694 10.75 16.4185 10.7781 16.5611 10.8344C16.7037 10.8906 16.8333 10.975 16.95 11.0875L17.6694 11.7813C17.7731 11.8938 17.8542 12.0188 17.9125 12.1563C17.9708 12.2938 18 12.4313 18 12.5688C18 12.7063 17.9741 12.8469 17.9222 12.9906C17.8704 13.1344 17.7861 13.2625 17.6694 13.375L13.3917 17.5H11ZM12.1667 16.375H12.9056L15.2583 14.0875L14.9083 13.7313L14.5389 13.3938L12.1667 15.6625V16.375ZM14.9083 13.7313L14.5389 13.3938L15.2583 14.0875L14.9083 13.7313Z" fill="#FFAB00"/>
</svg>
