<svg width="22" height="22" viewBox="0 0 22 22" fill="none" xmlns="http://www.w3.org/2000/svg">
<path d="M16.7011 17.9032C14.9998 18.9819 12.9822 19.6066 10.8187 19.6066C5.42648 19.6066 0.94051 15.7269 0 10.6067C0.43668 8.22927 1.63768 6.11935 3.33883 4.54102L0.21202 1.41422L1.62624 0L21.4253 19.7989L20.0111 21.2132L16.7011 17.9032ZM4.75396 5.95615C3.42509 7.1666 2.45616 8.77365 2.04114 10.6067C2.95858 14.6586 6.58296 17.6066 10.8187 17.6066C12.4181 17.6066 13.9304 17.1862 15.2427 16.4448L13.2144 14.4165C12.5207 14.8536 11.6992 15.1067 10.8187 15.1067C8.33334 15.1067 6.31862 13.0919 6.31862 10.6067C6.31862 9.72605 6.57153 8.90455 7.00867 8.21087L4.75396 5.95615ZM11.7323 12.9345L8.49082 9.69305C8.37966 9.97605 8.31862 10.2842 8.31862 10.6067C8.31862 11.9874 9.43796 13.1067 10.8187 13.1067C11.1411 13.1067 11.4493 13.0456 11.7323 12.9345ZM19.6252 15.199L18.1944 13.7682C18.8503 12.8333 19.3338 11.7651 19.5961 10.6067C18.6787 6.55463 15.0543 3.60661 10.8187 3.60661C9.97276 3.60661 9.15126 3.72418 8.37085 3.94463L6.79282 2.3666C8.03963 1.87604 9.39766 1.60661 10.8187 1.60661C16.2108 1.60661 20.6968 5.48637 21.6373 10.6067C21.3251 12.3063 20.6222 13.8693 19.6252 15.199ZM10.5413 6.11502C10.633 6.10944 10.7255 6.10661 10.8187 6.10661C13.3039 6.10661 15.3187 8.12133 15.3187 10.6067C15.3187 10.6998 15.3158 10.7923 15.3103 10.884L10.5413 6.11502Z" fill="black"/>
</svg>
