<svg width="22" height="23" viewBox="0 0 22 23" fill="none" xmlns="http://www.w3.org/2000/svg">
<rect width="22" height="23" rx="8" fill="#C11106" fill-opacity="0.4"/>
<path d="M7.5625 18C7.18438 18 6.86068 17.8586 6.59141 17.5757C6.32214 17.2928 6.1875 16.9528 6.1875 16.5556V7.16667H5.5V5.72222H8.9375V5H13.0625V5.72222H16.5V7.16667H15.8125V16.5556C15.8125 16.9528 15.6779 17.2928 15.4086 17.5757C15.1393 17.8586 14.8156 18 14.4375 18H7.5625ZM14.4375 7.16667H7.5625V16.5556H14.4375V7.16667ZM8.9375 15.1111H10.3125V8.61111H8.9375V15.1111ZM11.6875 15.1111H13.0625V8.61111H11.6875V15.1111Z" fill="#C11106"/>
</svg>
