<svg width="23" height="23" viewBox="0 0 23 23" fill="none" xmlns="http://www.w3.org/2000/svg">
<rect width="23" height="23" rx="8" fill="#257047" fill-opacity="0.4"/>
<path d="M14.2778 16.2273L16.5 13.8636L15.7222 13.0364L14.8333 13.9818V11.5148H13.7222V13.9818L12.8333 13.0364L12.0556 13.8636L14.2778 16.2273ZM12.0556 18V16.8182H16.5V18H12.0556ZM7.61111 15.6364C7.30556 15.6364 7.04398 15.5206 6.82639 15.2892C6.6088 15.0578 6.5 14.7795 6.5 14.4545V6.18182C6.5 5.85682 6.6088 5.5786 6.82639 5.34716C7.04398 5.11572 7.30556 5 7.61111 5H11.5L14.8333 8.54545V10.333H13.7222V9.13636H10.9444V6.18182H7.61111V14.4545H10.9444V15.6364H7.61111Z" fill="#257047"/>
</svg>
