<svg width="16" height="16" viewBox="0 0 16 16" fill="none" xmlns="http://www.w3.org/2000/svg">
<path d="M9.9987 1.33325H5.9987C5.63051 1.33325 5.33203 1.63173 5.33203 1.99992V3.33325C5.33203 3.70144 5.63051 3.99992 5.9987 3.99992H9.9987C10.3669 3.99992 10.6654 3.70144 10.6654 3.33325V1.99992C10.6654 1.63173 10.3669 1.33325 9.9987 1.33325Z" stroke="#475569" stroke-width="1.5" stroke-linecap="round" stroke-linejoin="round"/>
<path d="M10.668 2.66675H12.0013C12.3549 2.66675 12.6941 2.80722 12.9441 3.05727C13.1942 3.30732 13.3346 3.64646 13.3346 4.00008V13.3334C13.3346 13.687 13.1942 14.0262 12.9441 14.2762C12.6941 14.5263 12.3549 14.6667 12.0013 14.6667H4.0013C3.64768 14.6667 3.30854 14.5263 3.05849 14.2762C2.80844 14.0262 2.66797 13.687 2.66797 13.3334V4.00008C2.66797 3.64646 2.80844 3.30732 3.05849 3.05727C3.30854 2.80722 3.64768 2.66675 4.0013 2.66675H5.33464" stroke="#475569" stroke-width="1.5" stroke-linecap="round" stroke-linejoin="round"/>
<path d="M8 7.33337H10.6667" stroke="#475569" stroke-width="1.5" stroke-linecap="round" stroke-linejoin="round"/>
<path d="M8 10.6666H10.6667" stroke="#475569" stroke-width="1.5" stroke-linecap="round" stroke-linejoin="round"/>
<path d="M5.33203 7.33337H5.3387" stroke="#475569" stroke-width="1.5" stroke-linecap="round" stroke-linejoin="round"/>
<path d="M5.33203 10.6666H5.3387" stroke="#475569" stroke-width="1.5" stroke-linecap="round" stroke-linejoin="round"/>
</svg>
